Coordinates
version=1
nRows=54
nColumns=12
inDegrees=yes

Units are S.I. units (second, meters, Newtons, ...)
Angles are in degrees

endheader
time	SC_y	SC_z	SC_x	AC_y	AC_z	AC_x	GH_y	GH_z	GH_yy	EL_x	PS_y
       0.0              -11.85         0.6183          59.78           31.9         -7.155         -17.65          74.29          12.24         -59.45          64.91          133.8
   0.03787              -11.85         0.6201          59.78           31.9         -7.155         -17.64          74.25          12.25         -59.45          64.92          133.8
   0.07574              -11.86         0.6221          59.78          31.91         -7.155         -17.64          74.21          12.27         -59.46          64.92          133.8
    0.1136              -11.86         0.6242          59.78          31.91         -7.155         -17.63          74.17          12.28         -59.47          64.92          133.8
    0.1515              -11.87         0.6264          59.78          31.91         -7.155         -17.63          74.13          12.29         -59.48          64.92          133.7
    0.1894              -11.87         0.6288          59.78          31.92         -7.154         -17.62          74.08           12.3          -59.5          64.92          133.7
    0.2272              -11.88         0.6313          59.78          31.92         -7.154         -17.62          74.04          12.32         -59.51          64.92          133.7
    0.2651              -11.89          0.634          59.77          31.93         -7.154         -17.61          73.98          12.33         -59.52          64.92          133.7
     0.303               -11.9         0.6369          59.77          31.93         -7.154          -17.6          73.93          12.35         -59.53          64.92          133.7
    0.3408               -11.9           0.64          59.77          31.94         -7.154         -17.59          73.87          12.36         -59.55          64.92          133.7
    0.3787              -11.91         0.6433          59.77          31.95         -7.154         -17.59           73.8          12.38         -59.56          64.93          133.7
    0.4166              -11.92         0.6469          59.77          31.95         -7.153         -17.58          73.73           12.4         -59.58          64.93          133.7
    0.4545              -11.93         0.6507          59.77          31.96         -7.153         -17.57          73.66          12.42          -59.6          64.93          133.7
    0.4923              -11.94         0.6549          59.76          31.97         -7.153         -17.56          73.57          12.45         -59.62          64.93          133.6
    0.5302              -11.95         0.6594          59.76          31.98         -7.153         -17.55          73.49          12.47         -59.64          64.93          133.6
    0.5681              -11.97         0.6643          59.76          31.99         -7.152         -17.53          73.39           12.5         -59.66          64.94          133.6
    0.6059              -11.98         0.6696          59.76           32.0         -7.152         -17.52          73.29          12.53         -59.69          64.94          133.6
    0.6438               -12.0         0.6754          59.75          32.01         -7.152         -17.51          73.17          12.56         -59.72          64.94          133.6
    0.6817              -12.01         0.6818          59.75          32.02         -7.151         -17.49          73.05           12.6         -59.75          64.94          133.5
    0.7195              -12.03         0.6887          59.75          32.03         -7.151         -17.47          72.91          12.64         -59.78          64.95          133.5
    0.7574              -12.05         0.6963          59.74          32.05          -7.15         -17.45          72.77          12.68         -59.81          64.95          133.5
    0.7953              -12.07         0.7047          59.74          32.06          -7.15         -17.43           72.6          12.72         -59.85          64.95          133.5
    0.8332               -12.1          0.714          59.73          32.08         -7.149         -17.41          72.42          12.78          -59.9          64.96          133.4
     0.871              -12.12         0.7242          59.73           32.1         -7.149         -17.38          72.22          12.83         -59.95          64.96          133.4
    0.9089              -12.15         0.7356          59.72          32.12         -7.148         -17.35           72.0           12.9          -60.0          64.97          133.3
    0.9468              -12.19         0.7483          59.72          32.15         -7.147         -17.32          71.75          12.97         -60.06          64.97          133.3
    0.9846              -12.23         0.7626          59.71          32.17         -7.147         -17.29          71.47          13.04         -60.13          64.98          133.2
     1.023              -12.27         0.7786           59.7           32.2         -7.146         -17.25          71.16          13.13          -60.2          64.99          133.2
      1.06              -12.31         0.7967          59.69          32.24         -7.145          -17.2          70.81          13.23         -60.29           65.0          133.1
     1.098              -12.37         0.8172          59.68          32.28         -7.144         -17.15          70.41          13.35         -60.38          65.01          133.0
     1.136              -12.43         0.8407          59.67          32.32         -7.142         -17.09          69.95          13.48          -60.5          65.02          133.0
     1.174               -12.5         0.8676          59.65          32.37         -7.141         -17.03          69.42          13.63         -60.62          65.03          132.9
     1.212              -12.58         0.8987          59.64          32.43         -7.139         -16.95          68.82           13.8         -60.77          65.04          132.8
      1.25              -12.68         0.9349          59.62           32.5         -7.137         -16.86          68.11           14.0         -60.94          65.06          132.6
     1.288              -12.79         0.9771           59.6          32.58         -7.134         -16.75          67.29          14.23         -61.14          65.08          132.5
     1.325              -12.92          1.027          59.57          32.67         -7.131         -16.63          66.31          14.51         -61.37           65.1          132.3
     1.363              -13.07          1.086          59.54          32.79         -7.128         -16.48          65.16          14.84         -61.65          65.13          132.1
     1.401              -13.26          1.157          59.51          32.92         -7.124          -16.3          63.77          15.23         -61.99          65.16          131.8
     1.439              -13.49          1.243          59.46          33.09         -7.119         -16.09           62.1          15.71         -62.39           65.2          131.5
     1.477              -13.76          1.348          59.41          33.28         -7.113         -15.83          60.05          16.29         -62.89          65.25          131.1
     1.515               -14.1          1.477          59.34          33.53         -7.105          -15.5          57.52          17.01          -63.5          65.31          130.6
     1.553              -14.52          1.639          59.26          33.84         -7.096          -15.1          54.37          17.91         -64.26          65.38          130.1
     1.591              -15.06          1.842          59.15          34.22         -7.084         -14.59           50.4          19.03         -65.22          65.48          129.3
     1.628              -15.73          2.101          59.02          34.72          -7.07         -13.94          45.36          20.47         -66.44           65.6          128.4
     1.666               -16.6          2.432          58.85          35.34          -7.05         -13.12           38.9           22.3          -68.0          65.75          127.2
     1.704              -17.72          2.856          58.64          36.15         -7.026         -12.06          30.62          24.66         -70.01          65.94          125.6
     1.742              -19.14          3.399          58.36          37.18         -6.995          -10.7          20.03          27.67         -72.57          66.19          123.6
      1.78              -20.93          4.081          58.01          38.48         -6.955         -8.997           6.72          31.45         -75.78          66.51          121.2
     1.818              -23.11          4.912          57.58          40.06         -6.907          -6.92           -9.5          36.06         -79.71          66.89          118.1
     1.856              -25.63          5.876          57.09          41.89         -6.852         -4.513          -28.3           41.4         -84.25          67.33          114.6
     1.894              -28.37          6.919          56.55          43.87         -6.792         -1.907         -48.66          47.19         -89.18          67.81          110.8
     1.931               -31.1          7.962          56.02          45.85         -6.732         0.6996         -69.02          52.98          -94.1          68.29          107.0
     1.969              -33.63          8.925          55.53          47.68         -6.676          3.107         -87.82          58.32         -98.64          68.73          103.5
     2.007              -35.81          9.757           55.1          49.26         -6.628          5.183         -104.0          62.93         -102.6          69.11          100.5
